<svg width="277" height="63" viewBox="0 0 277 63" fill="none" xmlns="http://www.w3.org/2000/svg">
<g clip-path="url(#clip0_6_3)">
<path d="M0 5.99999C0 2.68628 2.68629 -7.62939e-06 6 -7.62939e-06H271C274.314 -7.62939e-06 277 2.68628 277 5.99999V57C277 60.3137 274.314 63 271 63H5.99999C2.68628 63 0 60.3137 0 57V5.99999Z" fill="black"/>
<path d="M3 6.99999C3 4.79085 4.79086 2.99999 7 2.99999H60C62.2091 2.99999 64 4.79085 64 6.99999V56C64 58.2091 62.2091 60 60 60H7C4.79086 60 3 58.2091 3 56V6.99999Z" fill="white"/>
<path d="M24.8532 48.1966L15.3046 48.0834L15.4787 24.4358C15.4982 21.7807 16.3019 19.4667 17.8896 17.494C19.4626 15.5211 21.6572 13.9942 24.4734 12.9133C27.2894 11.8442 30.5646 11.3318 34.2987 11.376C38.0476 11.4205 41.322 12.0105 44.1218 13.1462C46.9216 14.2937 49.0933 15.8724 50.637 17.8822C52.1807 19.8921 52.9428 22.2246 52.9232 24.8797L52.7492 48.5273L43.2006 48.4141L43.3698 25.4244C43.38 24.0375 43.0142 22.8003 42.2724 21.7128C41.5158 20.6251 40.4489 19.7648 39.0715 19.1321C37.6941 18.4993 36.0865 18.172 34.2489 18.1503C32.3965 18.1283 30.7844 18.4174 29.4126 19.0176C28.0262 19.6176 26.9541 20.4524 26.1964 21.5222C25.4239 22.5918 25.0326 23.82 25.0224 25.2069L24.8532 48.1966Z" fill="black"/>
<path d="M83.6825 45V17.814H86.8105L94.5385 37.778V17.814H97.7125V45H94.5385L86.8565 25.91V45H83.6825ZM109.578 45.552C108.198 45.552 106.987 45.3833 105.944 45.046C104.901 44.7393 104.073 44.08 103.46 43.068C102.847 42.056 102.54 40.538 102.54 38.514V23.518C102.54 21.8313 102.847 20.5587 103.46 19.7C104.073 18.8107 104.901 18.2127 105.944 17.906C107.017 17.5993 108.244 17.446 109.624 17.446C111.004 17.446 112.215 17.6147 113.258 17.952C114.331 18.2587 115.175 18.8413 115.788 19.7C116.401 20.5587 116.708 21.8313 116.708 23.518V38.514C116.708 40.5687 116.401 42.102 115.788 43.114C115.175 44.0953 114.331 44.7393 113.258 45.046C112.185 45.3833 110.958 45.552 109.578 45.552ZM109.578 43.39C110.283 43.39 110.897 43.298 111.418 43.114C111.97 42.93 112.399 42.5773 112.706 42.056C113.013 41.504 113.166 40.6913 113.166 39.618V23.426C113.166 22.3833 113.013 21.6013 112.706 21.08C112.399 20.528 111.97 20.16 111.418 19.976C110.897 19.792 110.283 19.7 109.578 19.7C108.873 19.7 108.259 19.792 107.738 19.976C107.217 20.16 106.803 20.528 106.496 21.08C106.189 21.6013 106.036 22.3833 106.036 23.426V39.618C106.036 40.6913 106.189 41.504 106.496 42.056C106.803 42.5773 107.217 42.93 107.738 43.114C108.259 43.298 108.873 43.39 109.578 43.39ZM123.448 45V20.344H118.94V17.814H131.544V20.344H126.99V45H123.448ZM142.89 45V17.814H154.85V20.344H146.616V29.452H153.286V32.212H146.616V45H142.89ZM164.832 45.552C163.452 45.552 162.241 45.3833 161.198 45.046C160.155 44.7393 159.327 44.08 158.714 43.068C158.101 42.056 157.794 40.538 157.794 38.514V23.518C157.794 21.8313 158.101 20.5587 158.714 19.7C159.327 18.8107 160.155 18.2127 161.198 17.906C162.271 17.5993 163.498 17.446 164.878 17.446C166.258 17.446 167.469 17.6147 168.512 17.952C169.585 18.2587 170.429 18.8413 171.042 19.7C171.655 20.5587 171.962 21.8313 171.962 23.518V38.514C171.962 40.5687 171.655 42.102 171.042 43.114C170.429 44.0953 169.585 44.7393 168.512 45.046C167.439 45.3833 166.212 45.552 164.832 45.552ZM164.832 43.39C165.537 43.39 166.151 43.298 166.672 43.114C167.224 42.93 167.653 42.5773 167.96 42.056C168.267 41.504 168.42 40.6913 168.42 39.618V23.426C168.42 22.3833 168.267 21.6013 167.96 21.08C167.653 20.528 167.224 20.16 166.672 19.976C166.151 19.792 165.537 19.7 164.832 19.7C164.127 19.7 163.513 19.792 162.992 19.976C162.471 20.16 162.057 20.528 161.75 21.08C161.443 21.6013 161.29 22.3833 161.29 23.426V39.618C161.29 40.6913 161.443 41.504 161.75 42.056C162.057 42.5773 162.471 42.93 162.992 43.114C163.513 43.298 164.127 43.39 164.832 43.39ZM176.806 45V17.814H185.73C187.355 17.814 188.628 18.1973 189.548 18.964C190.498 19.7 190.974 20.8347 190.974 22.368V26.692C190.974 28.256 190.529 29.4827 189.64 30.372C188.75 31.2613 187.508 31.7367 185.914 31.798C186.926 31.8593 187.662 32.1967 188.122 32.81C188.612 33.4233 189.042 34.374 189.41 35.662L192.124 45H188.168L185.822 35.892C185.607 35.064 185.316 34.328 184.948 33.684C184.61 33.04 184.074 32.718 183.338 32.718H180.486V45H176.806ZM180.486 30.188H184.074C185.331 30.188 186.205 29.8813 186.696 29.268C187.217 28.6547 187.478 27.75 187.478 26.554V22.966C187.478 21.8927 187.232 21.1107 186.742 20.62C186.282 20.0987 185.546 19.838 184.534 19.838H180.486V30.188ZM195.942 45V17.814H207.902V20.344H199.668V29.452H206.338V32.212H199.668V42.516H207.902V45H195.942ZM214.703 45L209.781 17.814H213.415L217.141 40.722H217.049L220.867 17.814H224.363L219.395 45H214.703ZM227.792 45V17.814H239.752V20.344H231.518V29.452H238.188V32.212H231.518V42.516H239.752V45H227.792ZM243.425 45V17.814H252.349C253.974 17.814 255.247 18.1973 256.167 18.964C257.117 19.7 257.593 20.8347 257.593 22.368V26.692C257.593 28.256 257.148 29.4827 256.259 30.372C255.369 31.2613 254.127 31.7367 252.533 31.798C253.545 31.8593 254.281 32.1967 254.741 32.81C255.231 33.4233 255.661 34.374 256.029 35.662L258.743 45H254.787L252.441 35.892C252.226 35.064 251.935 34.328 251.567 33.684C251.229 33.04 250.693 32.718 249.957 32.718H247.105V45H243.425ZM247.105 30.188H250.693C251.95 30.188 252.824 29.8813 253.315 29.268C253.836 28.6547 254.097 27.75 254.097 26.554V22.966C254.097 21.8927 253.851 21.1107 253.361 20.62C252.901 20.0987 252.165 19.838 251.153 19.838H247.105V30.188Z" fill="#FFFBFB"/>
</g>
<defs>
<clipPath id="clip0_6_3">
<rect width="277" height="63" fill="white"/>
</clipPath>
</defs>
</svg>
